<svg width="326" height="214" viewBox="0 0 326 214" fill="none" xmlns="http://www.w3.org/2000/svg">
<g clip-path="url(#clip0)">
<path d="M271.1 0H51.5849C50.8532 0 50.1514 0.28452 49.6339 0.790969C49.1165 1.29742 48.8258 1.98431 48.8258 2.70054V199.84C48.8258 200.194 48.8972 200.546 49.0358 200.873C49.1745 201.201 49.3777 201.499 49.6339 201.749C49.8901 202 50.1943 202.199 50.5291 202.335C50.8638 202.47 51.2226 202.54 51.5849 202.54H271.1C271.462 202.54 271.821 202.47 272.156 202.335C272.491 202.199 272.795 202 273.051 201.749C273.307 201.499 273.51 201.201 273.649 200.873C273.788 200.546 273.859 200.194 273.859 199.84V2.70054C273.859 2.3459 273.788 1.99473 273.649 1.66709C273.51 1.33944 273.307 1.04174 273.051 0.790969C272.795 0.540201 272.491 0.341281 272.156 0.205566C271.821 0.0698515 271.462 0 271.1 0V0ZM267.394 194.015C267.394 194.732 267.103 195.419 266.586 195.925C266.068 196.431 265.366 196.716 264.635 196.716H58.1533C57.4215 196.716 56.7197 196.431 56.2023 195.925C55.6849 195.419 55.3942 194.732 55.3942 194.015V8.60544C55.3831 8.24408 55.4464 7.88422 55.5801 7.54722C55.7138 7.21021 55.9153 6.90292 56.1726 6.64355C56.4299 6.38418 56.7378 6.17802 57.078 6.03729C57.4183 5.89656 57.7839 5.82413 58.1533 5.82429H264.635C265.366 5.82429 266.068 6.10881 266.586 6.61526C267.103 7.12171 267.394 7.8086 267.394 8.52483V194.015Z" fill="#E6E8EF"/>
<path d="M113.83 25.3931C114.626 25.3931 115.271 24.545 115.271 23.4987C115.271 22.4525 114.626 21.6043 113.83 21.6043C113.034 21.6043 112.389 22.4525 112.389 23.4987C112.389 24.545 113.034 25.3931 113.83 25.3931Z" fill="#9A9CCE"/>
<path d="M83.4795 64.4904C83.4795 65.5384 82.8412 66.3848 82.0382 66.3848C81.2352 66.3848 80.5969 65.5384 80.5969 64.4904C80.5969 63.4424 81.2352 62.596 82.0382 62.596C82.8412 62.596 83.4795 63.4626 83.4795 64.4904Z" fill="#9A9CCE"/>
<path d="M224.792 16.4249H136.459V20.778H224.792V16.4249Z" fill="#E6E8EF"/>
<path d="M235.128 25.514H148.813V29.8671H235.128V25.514Z" fill="#E6E8EF"/>
<path d="M224.792 34.6031H157.296V38.9563H224.792V34.6031Z" fill="#E6E8EF"/>
<path d="M18.8667 29.9478C15.2341 29.9478 11.6831 31.0021 8.66272 32.9774C5.64233 34.9527 3.28822 37.7603 1.89809 41.0451C0.507958 44.3299 0.144236 47.9444 0.852919 51.4315C1.5616 54.9187 3.31086 58.1218 5.87949 60.6359C8.44812 63.15 11.7208 64.8621 15.2835 65.5558C18.8463 66.2494 22.5393 65.8934 25.8953 64.5328C29.2514 63.1722 32.1199 60.868 34.1381 57.9118C36.1562 54.9555 37.2334 51.4799 37.2334 47.9245C37.2334 43.1567 35.2984 38.5843 31.8539 35.213C28.4095 31.8417 23.7379 29.9478 18.8667 29.9478ZM18.8667 62.4751C15.9264 62.4751 13.0522 61.6217 10.6074 60.0229C8.16267 58.424 6.25722 56.1515 5.13202 53.4928C4.00682 50.834 3.71242 47.9083 4.28604 45.0858C4.85966 42.2632 6.27554 39.6705 8.35463 37.6356C10.4337 35.6006 13.0827 34.2148 15.9664 33.6534C18.8502 33.092 21.8393 33.3801 24.5558 34.4814C27.2723 35.5827 29.5941 37.4477 31.2276 39.8406C32.8611 42.2334 33.733 45.0466 33.733 47.9245C33.733 49.8353 33.3485 51.7274 32.6014 53.4928C31.8543 55.2581 30.7593 56.8622 29.3788 58.2133C27.9983 59.5645 26.3595 60.6363 24.5558 61.3675C22.7521 62.0988 20.819 62.4751 18.8667 62.4751Z" fill="#E6E8EF"/>
<path d="M20.4933 49.0933C20.745 48.7531 20.8818 48.3445 20.8846 47.9244C20.8909 47.4414 20.7198 46.9722 20.4023 46.6023C20.0848 46.2324 19.6422 45.9864 19.155 45.9091V37.344C19.155 37.2691 19.1246 37.1974 19.0705 37.1445C19.0165 37.0916 18.9432 37.0618 18.8667 37.0618C18.7902 37.0618 18.7169 37.0916 18.6629 37.1445C18.6088 37.1974 18.5784 37.2691 18.5784 37.344V45.9696C18.0323 46.007 17.5238 46.2552 17.1647 46.6596C16.8056 47.064 16.6253 47.5915 16.6635 48.126C16.7017 48.6605 16.9553 49.1582 17.3685 49.5097C17.7817 49.8612 18.3206 50.0376 18.8667 50.0002C19.2981 49.9917 19.7158 49.8507 20.0609 49.5972L23.829 53.2852C23.8953 53.31 23.9686 53.31 24.0349 53.2852C24.0672 53.2997 24.1023 53.3072 24.1379 53.3072C24.1734 53.3072 24.2085 53.2997 24.2408 53.2852C24.2711 53.2606 24.2954 53.2298 24.3121 53.195C24.3288 53.1602 24.3375 53.1222 24.3375 53.0837C24.3375 53.0452 24.3288 53.0072 24.3121 52.9724C24.2954 52.9375 24.2711 52.9067 24.2408 52.8821L20.4933 49.0933Z" fill="#E6E8EF"/>
<path fill-rule="evenodd" clip-rule="evenodd" d="M130.405 159.533C130.405 159.533 128.079 93.0274 119.183 89.7223C110.288 86.4172 27.803 78.5977 16.8077 91.3144C5.81235 104.031 29.6561 137.163 27.8647 167.675L130.405 159.533Z" fill="#5D53A2"/>
<path fill-rule="evenodd" clip-rule="evenodd" d="M14.0486 97.8441C11.9895 113.322 29.4091 141.456 27.8648 167.675L54.8795 165.519C53.4881 155.29 51.2851 145.183 48.2905 135.289C45.9226 127.389 24.2203 73.7408 14.0486 97.8441Z" fill="#6270B5"/>
<path fill-rule="evenodd" clip-rule="evenodd" d="M161.106 167.272C160.467 166.365 147.392 107.155 129.396 102.217C111.833 97.4209 131.229 177.812 131.229 177.812C131.229 177.812 136.974 181.843 148.854 177.449C160.735 173.056 161.106 167.272 161.106 167.272Z" fill="#379968"/>
<path fill-rule="evenodd" clip-rule="evenodd" d="M63.0333 83.5756C59.327 92.6244 70.6517 110.117 88.1125 109.775C105.573 109.432 115.642 92.3825 102.238 80.6735C94.5161 73.9625 66.7395 74.5671 63.0333 83.5756Z" fill="#70C170"/>
<path fill-rule="evenodd" clip-rule="evenodd" d="M102.67 88.8154L128.532 101.935C132.464 103.951 157.358 146.091 158.82 202.419H50.2878C50.2878 202.419 29.059 115.619 30.9739 110.218C32.8888 104.817 73.0402 87.7675 73.0402 87.7675L102.67 88.8154Z" fill="#70C170"/>
<path fill-rule="evenodd" clip-rule="evenodd" d="M147.763 140.549C150.816 149.584 153.252 158.807 155.052 168.159C157.249 179.461 158.509 190.918 158.82 202.419H50.2878C50.2878 202.419 42.8958 172.189 37.2334 146.393C51.2555 161.549 72.7932 177.349 102.691 179.243C111.112 179.767 122.849 179.787 133.061 171.927C146.692 161.407 147.64 144.116 147.763 140.549Z" fill="#379968"/>
<path fill-rule="evenodd" clip-rule="evenodd" d="M71.5783 100.162C79.0527 109.412 105.161 123.217 106.912 103.547C106.912 103.547 108.065 116.345 96.6163 118.461C85.168 120.577 71.5783 100.162 71.5783 100.162Z" fill="#379968"/>
<path fill-rule="evenodd" clip-rule="evenodd" d="M59.3064 176.059C59.3064 176.059 48.1876 98.8517 32.6623 108.243C15.2222 118.783 29.4296 187.264 29.4296 187.264C29.4296 187.264 35.195 191.476 47.0551 186.881C58.9152 182.286 59.3064 176.059 59.3064 176.059Z" fill="#70C170"/>
<path fill-rule="evenodd" clip-rule="evenodd" d="M61.8802 177.349C21.2964 151.311 2.29139 213.222 54.2823 198.812L61.8802 177.349Z" fill="#379968"/>
<path fill-rule="evenodd" clip-rule="evenodd" d="M116.568 159.332L115.827 157.921C125.278 144.519 125.978 150.142 132.444 142.081C135.944 137.748 137.427 145.748 134.379 149.416C129.705 152.218 116.568 159.332 116.568 159.332Z" fill="#F58A69"/>
<path fill-rule="evenodd" clip-rule="evenodd" d="M34.8449 183.899C26.6087 201.553 44.2959 201.694 55.2295 198.55C66.163 195.406 119.925 171.786 119.925 171.786L114.715 158.828C94.0631 163.604 43.1429 166.224 34.8449 183.899Z" fill="#F9AE83"/>
<path fill-rule="evenodd" clip-rule="evenodd" d="M34.8449 183.898C26.6087 201.553 44.2959 201.694 55.2295 198.55C55.9501 198.328 56.8973 198.026 57.968 197.643C52.1615 198.207 46.1079 197.643 42.8958 194.076C38.0776 188.614 40.8367 180.472 43.4517 175.474C39.7886 177.379 36.7913 180.313 34.8449 183.898Z" fill="#F58A69"/>
<path fill-rule="evenodd" clip-rule="evenodd" d="M133.144 153.165L134.215 148.872L149.925 152.862L148.587 166.708L135.944 168.28L133.144 153.165Z" fill="#F58A69"/>
<path fill-rule="evenodd" clip-rule="evenodd" d="M112.121 161.569L114.612 158.526L134.338 148.872C134.338 148.872 137.88 160.017 136.047 168.28C136.047 168.28 126.699 172.633 119.925 171.786L112.121 161.569Z" fill="#F9AE83"/>
<path d="M40.3425 110.339C43.929 112.786 46.7744 116.135 48.5787 120.033C50.5112 123.839 52.0561 127.821 53.191 131.923C54.256 136.023 55.0674 140.182 55.6207 144.378C55.806 146.393 56.0942 148.57 56.2384 150.666C56.3825 152.762 56.4237 154.878 56.4443 156.994C55.6824 152.822 55.0853 148.691 54.2823 144.579L53.0468 138.534C52.5527 136.518 52.0585 134.503 51.5026 132.488C50.4614 128.461 49.0841 124.524 47.3845 120.718C46.5639 118.812 45.5788 116.978 44.44 115.236C43.3714 113.386 41.9854 111.729 40.3425 110.339Z" fill="#297F53"/>
<path d="M124.619 16.9086C124.619 16.9086 131.641 20.7578 130.22 32.6886C128.799 44.6193 124.043 46.1913 124.043 46.1913C124.043 46.1913 115.086 20.6772 124.619 16.9086Z" fill="#33334D"/>
<path d="M102.629 74.5671L102.423 89.4805V96.3125C93.9396 103.024 79.3203 94.8816 79.3203 94.8816L76.9936 71.665C80.9264 68.8234 91.2422 71.8867 97.5841 73.3176C100.57 74.0028 102.629 74.5671 102.629 74.5671Z" fill="#F9AE83"/>
<path d="M102.629 74.5671L102.423 89.4805C92.1276 87.5861 82.8207 73.9826 82.8207 73.9826L97.5841 73.2773C100.57 74.0028 102.629 74.5671 102.629 74.5671Z" fill="#F58A69"/>
<path d="M128.82 34.3815C128.82 34.7442 128.82 35.107 128.82 35.4899C128.82 35.8728 128.82 35.8123 128.82 35.9736V37.0417C129.026 41.6568 128.923 46.7556 128.655 51.8946C128.655 52.9829 128.655 54.051 128.47 55.1192C128.284 56.1873 128.47 56.9733 128.284 57.8802C128.14 59.7746 127.996 61.669 127.831 63.4828C127.729 64.7524 127.605 66.0019 127.481 67.191C127.401 68.0267 127.256 68.8553 127.049 69.6698C126.444 72.1257 125.298 74.4228 123.693 76.401C121.77 78.8079 119.24 80.6832 116.351 81.8423C113.463 83.0014 110.316 83.4043 107.22 83.0113C101.867 82.3462 95.9369 81.4796 90.398 80.3712L89.5744 80.21C85.4894 79.4375 81.4645 78.387 77.529 77.0661C77.0554 76.5018 76.6024 75.9173 76.1494 75.3127C72.3786 70.0685 69.6348 64.1849 68.0574 57.9608C67.3779 55.4819 66.8425 52.9426 66.3895 50.4033C66.3536 50.2058 66.3055 50.0106 66.2454 49.8189C66.0807 47.4609 65.9159 45.103 65.7924 42.8458C65.5731 38.8593 66.1776 34.8705 67.5698 31.1179C68.9619 27.3653 71.1131 23.9262 73.8946 21.0062C76.6762 18.0861 80.0309 15.7453 83.7581 14.1236C87.4853 12.5019 91.5085 11.6327 95.5868 11.568C109.135 11.306 122.354 15.5986 126.102 22.088C127.832 25.9687 128.756 30.1477 128.82 34.3815Z" fill="#F9AE83"/>
<path d="M76.3141 75.3127C72.5434 70.0685 69.7996 64.1849 68.2221 57.9608C70.9089 57.9305 73.5729 58.4451 76.0465 59.4723C76.8348 64.7189 76.9248 70.0435 76.3141 75.3127Z" fill="#33334D"/>
<path d="M105.738 45.627C105.882 47.6423 105.1 49.2546 103.988 49.3352C102.876 49.4158 101.929 47.8842 101.723 45.9091C101.517 43.9341 102.361 42.2816 103.473 42.2009C104.585 42.1203 105.511 43.6721 105.738 45.627Z" fill="#33334D"/>
<path d="M125.731 44.2162C125.875 46.2316 125.093 47.8438 123.981 47.9244C122.869 48.0051 121.922 46.4734 121.716 44.4984C121.51 42.5234 122.354 40.8708 123.466 40.7902C124.578 40.7096 125.567 42.3218 125.731 44.2162Z" fill="#33334D"/>
<path d="M93.4042 40.5484C94.4047 38.2015 96.2934 36.3241 98.6754 35.3085C100.976 34.4439 103.531 34.4873 105.8 35.4295C106.068 35.549 106.283 35.7601 106.405 36.0234C106.526 36.2867 106.545 36.5842 106.459 36.8603C106.412 37.022 106.332 37.1726 106.224 37.3023C106.115 37.4321 105.98 37.5383 105.827 37.6141C105.674 37.69 105.506 37.7338 105.335 37.7428C105.164 37.7518 104.992 37.7258 104.832 37.6665C102.855 36.9422 100.698 36.8303 98.6543 37.3458C96.6102 37.8613 94.7774 38.9793 93.4042 40.5484Z" fill="#33334D"/>
<path d="M128.82 34.3815C128.82 34.7442 128.82 35.107 128.82 35.4899C128.82 35.8728 128.82 35.8124 128.82 35.9736C127.459 35.459 125.998 35.2446 124.542 35.3456C123.087 35.4466 121.672 35.8606 120.398 36.558C120.241 36.6446 120.064 36.6929 119.884 36.6991C119.611 36.7171 119.34 36.6463 119.114 36.4978C118.887 36.3492 118.716 36.1314 118.629 35.8781C118.542 35.6249 118.543 35.3506 118.633 35.0981C118.722 34.8456 118.894 34.629 119.122 34.4822C121.233 33.2329 123.758 32.8354 126.164 33.3738C127.111 33.5246 128.016 33.8678 128.82 34.3815Z" fill="#33334D"/>
<path d="M78.1055 46.8362C78.1055 46.8362 71.1047 39.6616 66.06 44.4581C60.48 49.7383 66.2454 65.9415 78.2702 64.7121L78.1055 46.8362Z" fill="#F9AE83"/>
<path d="M78.3114 61.1047C78.0494 61.1242 77.7893 61.0487 77.5804 60.8926C77.3716 60.7366 77.2287 60.5108 77.1789 60.2583C75.5935 51.9753 70.4253 51.0482 70.2194 51.0079C69.9418 50.9633 69.6933 50.8135 69.5276 50.591C69.362 50.3686 69.2924 50.0912 69.334 49.8189C69.3541 49.6852 69.401 49.5567 69.472 49.4407C69.5429 49.3248 69.6365 49.2236 69.7475 49.1431C69.8584 49.0626 69.9844 49.0044 70.1184 48.9716C70.2524 48.9389 70.3916 48.9323 70.5282 48.9523C70.8165 48.9523 77.3848 50.0607 79.2792 59.8754C79.3059 60.0091 79.3053 60.1467 79.2772 60.2802C79.2491 60.4137 79.1942 60.5404 79.1157 60.6529C79.0371 60.7654 78.9365 60.8616 78.8196 60.9357C78.7027 61.0098 78.572 61.0604 78.435 61.0845L78.3114 61.1047Z" fill="#EF7A56"/>
<path d="M71.1459 56.2881C70.8884 56.3119 70.6311 56.24 70.4253 56.0866C70.3128 56.0034 70.2183 55.8992 70.147 55.7802C70.0758 55.6611 70.0293 55.5295 70.0102 55.3928C69.991 55.2561 69.9997 55.1171 70.0356 54.9837C70.0715 54.8503 70.1339 54.7251 70.2194 54.6154C70.899 53.8501 71.7644 53.2644 72.7359 52.9123C73.7074 52.5601 74.7538 52.4527 75.7788 52.6C75.9166 52.6171 76.0494 52.6614 76.1693 52.73C76.2891 52.7987 76.3936 52.8904 76.4763 52.9996C76.559 53.1088 76.6183 53.2332 76.6506 53.3655C76.6829 53.4977 76.6875 53.6349 76.6642 53.7689C76.6465 53.9044 76.6014 54.0351 76.5315 54.1534C76.4616 54.2716 76.3684 54.3751 76.2572 54.4576C76.146 54.5402 76.0191 54.6002 75.8839 54.6342C75.7488 54.6682 75.608 54.6755 75.4699 54.6557C74.8202 54.5472 74.153 54.6012 73.5302 54.8126C72.9075 55.024 72.3494 55.3859 71.9078 55.8649C71.8194 55.9849 71.7056 56.0849 71.5741 56.1579C71.4426 56.231 71.2966 56.2754 71.1459 56.2881Z" fill="#EF7A56"/>
<path d="M113.151 76.925C110.651 77.1073 108.169 76.3908 106.17 74.9097C105.955 74.7333 105.819 74.4802 105.794 74.2062C105.769 73.9322 105.856 73.6597 106.036 73.4485C106.217 73.2374 106.475 73.105 106.755 73.0804C107.035 73.0559 107.314 73.1412 107.529 73.3175C108.822 74.1854 110.329 74.6991 111.893 74.8054C113.457 74.9117 115.021 74.6067 116.424 73.9221C116.697 73.8152 117.003 73.8189 117.273 73.9323C117.543 74.0457 117.757 74.2595 117.866 74.5267C117.975 74.794 117.971 75.0928 117.855 75.3573C117.74 75.6219 117.521 75.8306 117.248 75.9375C115.949 76.4923 114.564 76.8263 113.151 76.925Z" fill="#F58A69"/>
<path d="M123.713 57.5577C118.427 59.2838 112.726 59.3753 107.385 57.8197C105.144 57.061 102.771 56.7459 100.405 56.8926C96.3075 57.3641 92.398 58.8407 89.039 61.1853C85.9614 56.7109 83.6845 51.7563 82.3059 46.5339L78.1878 46.8362C78.1878 46.8362 79.7527 61.2054 84.4679 71.5038C85.9724 74.7953 88.0642 77.798 90.6451 80.3712C93.8425 83.5979 97.7716 86.042 102.114 87.5054C104.628 88.4625 107.335 88.835 110.021 88.5937C116.527 87.6264 128.284 74.8895 127.729 67.191C125.669 72.3704 122.107 77.0056 116.589 77.9125C109.115 79.1418 102.464 75.3329 96.8222 70.0124C96.1521 69.3104 95.7129 68.4277 95.5613 67.4785C95.4098 66.5293 95.5529 65.5574 95.9723 64.6888C96.3916 63.8202 97.0678 63.0949 97.9132 62.6067C98.7586 62.1186 99.7342 61.8902 100.714 61.9511H100.837C104.316 61.9777 107.777 62.4451 111.133 63.3417C113.934 64.1471 116.935 63.9689 119.616 62.8379C124.99 61.0241 127.049 62.5356 128.12 63.5432C128.771 62.6838 129.196 61.6799 129.355 60.621C129.498 59.5797 129.407 58.5205 129.087 57.5174C128.161 56.4291 126.267 56.8725 123.713 57.5577Z" fill="#33334D"/>
<path d="M102.793 54.2929C101.096 54.4121 99.3999 54.036 97.9205 53.212C96.4412 52.388 95.2447 51.1532 94.4823 49.6636C93.7199 48.1741 93.4258 46.4968 93.6373 44.8437C93.8488 43.1906 94.5564 41.636 95.6705 40.3765C96.7846 39.117 98.2553 38.2091 99.8965 37.7676C101.538 37.3261 103.276 37.3708 104.891 37.8961C106.507 38.4214 107.926 39.4037 108.971 40.7188C110.016 42.0339 110.639 43.6227 110.762 45.2844C110.915 47.5108 110.164 49.7064 108.672 51.3935C107.179 53.0806 105.067 54.1226 102.793 54.2929ZM101.64 38.8555C100.225 38.9583 98.8716 39.4693 97.7522 40.324C96.6328 41.1787 95.7972 42.3388 95.3507 43.6578C94.9043 44.9769 94.867 46.3958 95.2436 47.7356C95.6202 49.0754 96.3939 50.2759 97.4669 51.1858C98.54 52.0956 99.8643 52.674 101.273 52.8479C102.681 53.0218 104.111 52.7834 105.381 52.1629C106.652 51.5424 107.706 50.5675 108.41 49.3612C109.115 48.155 109.439 46.7714 109.341 45.3852C109.204 43.52 108.316 41.7844 106.872 40.56C105.428 39.3355 103.546 38.7224 101.64 38.8555Z" fill="#33334D"/>
<path d="M125.155 52.7008C123.457 52.82 121.761 52.4439 120.282 51.6199C118.802 50.7959 117.606 49.5611 116.844 48.0715C116.081 46.582 115.787 44.9047 115.999 43.2516C116.21 41.5985 116.918 40.0439 118.032 38.7844C119.146 37.5249 120.617 36.617 122.258 36.1755C123.899 35.734 125.637 35.7787 127.253 36.304C128.868 36.8293 130.288 37.8116 131.333 39.1267C132.378 40.4418 133.001 42.0306 133.123 43.6923C133.205 44.7959 133.063 45.9045 132.706 46.9546C132.35 48.0046 131.786 48.9757 131.046 49.8123C130.306 50.6488 129.405 51.3345 128.394 51.8301C127.383 52.3257 126.282 52.6216 125.155 52.7008ZM124.043 37.2835C122.626 37.3867 121.273 37.8985 120.153 38.7543C119.034 39.61 118.198 40.7714 117.753 42.0916C117.307 43.4117 117.271 44.8316 117.65 46.1717C118.028 47.5118 118.804 48.712 119.879 49.6208C120.954 50.5295 122.28 51.106 123.69 51.2775C125.1 51.4489 126.53 51.2076 127.799 50.5839C129.069 49.9603 130.121 48.9824 130.823 47.7737C131.525 46.565 131.846 45.1798 131.744 43.7931C131.676 42.8703 131.423 41.9697 130.999 41.1429C130.575 40.3161 129.988 39.5792 129.273 38.9745C128.558 38.3699 127.728 37.9093 126.83 37.6191C125.933 37.3289 124.985 37.2149 124.043 37.2835Z" fill="#33334D"/>
<path d="M78.1516 43.5345L78.1444 44.925L94.4313 45.0057L94.4385 43.6152L78.1516 43.5345Z" fill="#33334D"/>
<path d="M110.309 44.6798L109.403 43.6117C110.464 42.7518 111.773 42.2388 113.147 42.1448C114.521 42.0508 115.89 42.3806 117.063 43.0877L116.28 44.2364C115.359 43.7002 114.292 43.4551 113.223 43.5344C112.154 43.6137 111.137 44.0137 110.309 44.6798Z" fill="#33334D"/>
<path d="M116.218 56.4291C116.055 56.4386 115.892 56.4108 115.742 56.3478C115.592 56.2849 115.459 56.1885 115.354 56.0664C115.156 55.8703 115.046 55.6061 115.046 55.3308C115.046 55.0555 115.156 54.7912 115.354 54.5952L118.03 52.2977L115.539 51.8342C115.336 51.8033 115.148 51.714 114.997 51.5775C114.847 51.4411 114.742 51.2638 114.695 51.0684L113.13 44.5185C113.099 44.3862 113.095 44.2492 113.118 44.1153C113.141 43.9814 113.19 43.8532 113.264 43.7381C113.338 43.623 113.434 43.5233 113.547 43.4445C113.66 43.3658 113.787 43.3096 113.923 43.2791C114.058 43.2487 114.198 43.2446 114.335 43.2671C114.471 43.2896 114.602 43.3383 114.72 43.4104C114.838 43.4824 114.939 43.5764 115.02 43.687C115.1 43.7977 115.158 43.9227 115.189 44.055L116.61 49.9196L120.563 50.625C120.757 50.6625 120.937 50.7521 121.083 50.8838C121.228 51.0154 121.333 51.184 121.387 51.3707C121.448 51.5587 121.451 51.7602 121.396 51.9501C121.341 52.14 121.23 52.3099 121.078 52.4388L116.774 56.1671C116.619 56.305 116.426 56.396 116.218 56.4291Z" fill="#EF7A56"/>
<path d="M124.969 23.8615C117.619 36.1751 93.6924 22.6926 93.6924 22.6926C92.91 28.1743 84.8591 28.7386 83.1501 33.3536C81.4411 37.9687 82.3059 46.5137 82.3059 46.5137L78.1878 46.816C72.2578 39.9035 66.1424 44.4379 66.1424 44.4379C62.0243 30.3307 65.5041 19.992 79.5468 10.9432C81.8976 9.4228 84.4743 8.26714 87.1858 7.51717C91.5304 5.32046 110.453 -2.76099 122.89 4.59495C134.544 11.5277 125.361 23.3375 124.969 23.8615Z" fill="#33334D"/>
<path d="M121.984 65.0144C121.962 65.5644 121.886 66.1111 121.757 66.6469C121.263 68.7415 120.035 70.6004 118.286 71.9002C116.536 73.2 114.377 73.8584 112.183 73.761C110.906 73.6932 109.656 73.3725 108.509 72.8183C107.363 72.264 106.343 71.4877 105.511 70.5364C104.386 69.2006 103.672 67.579 103.452 65.8609C103.401 65.3112 103.401 64.758 103.452 64.2083L122.169 65.0749L121.984 65.0144Z" fill="#921A1D"/>
<path d="M121.984 65.0144C121.962 65.5644 121.886 66.111 121.757 66.6468L103.226 65.8004C103.174 65.2507 103.174 64.6975 103.226 64.1478L121.943 65.0144H121.984Z" fill="white"/>
<path d="M119.286 71.1209C118.369 72.0161 117.271 72.7152 116.063 73.174C114.855 73.6328 113.563 73.8414 112.268 73.7864C110.973 73.7315 109.704 73.4143 108.541 72.8549C107.378 72.2955 106.347 71.5061 105.511 70.5364C107.482 68.957 109.981 68.1487 112.526 68.2679C115.07 68.387 117.479 69.425 119.286 71.1813V71.1209Z" fill="#F15D67"/>
<path fill-rule="evenodd" clip-rule="evenodd" d="M160.529 204.515H86.1563C85.7607 204.513 85.3696 204.433 85.0057 204.281C84.6418 204.13 84.3123 203.908 84.0364 203.631C83.7605 203.353 83.5438 203.025 83.3987 202.665C83.2536 202.305 83.1831 201.92 83.1913 201.533C83.1967 200.765 83.5108 200.029 84.0657 199.486C84.6206 198.943 85.3716 198.636 86.1563 198.631H160.529C161.314 198.636 162.065 198.943 162.62 199.486C163.175 200.029 163.489 200.765 163.494 201.533C163.502 201.92 163.432 202.305 163.287 202.665C163.142 203.025 162.925 203.353 162.649 203.631C162.373 203.908 162.044 204.13 161.68 204.281C161.316 204.433 160.925 204.513 160.529 204.515Z" fill="#303486"/>
<path fill-rule="evenodd" clip-rule="evenodd" d="M157.811 130.815H256.851C257.212 130.803 257.57 130.875 257.896 131.026C258.222 131.176 258.506 131.401 258.726 131.681C258.945 131.96 259.093 132.288 259.158 132.635C259.222 132.982 259.201 133.339 259.096 133.677L243.262 201.674C243.049 202.458 242.587 203.155 241.943 203.666C241.3 204.177 240.507 204.474 239.679 204.515H140.639C140.284 204.521 139.934 204.445 139.616 204.292C139.297 204.14 139.02 203.916 138.808 203.639C138.595 203.362 138.452 203.039 138.391 202.698C138.33 202.356 138.352 202.005 138.456 201.674L154.311 133.677C154.507 132.897 154.952 132.199 155.582 131.684C156.211 131.169 156.992 130.865 157.811 130.815Z" fill="#869ACE"/>
<path fill-rule="evenodd" clip-rule="evenodd" d="M161.106 130.815H260.166C260.527 130.803 260.885 130.875 261.211 131.026C261.537 131.176 261.821 131.401 262.041 131.681C262.26 131.96 262.408 132.288 262.473 132.635C262.537 132.982 262.516 133.339 262.411 133.677L246.556 201.674C246.347 202.456 245.89 203.153 245.249 203.664C244.609 204.175 243.819 204.473 242.994 204.515H143.892C143.534 204.526 143.179 204.454 142.855 204.305C142.531 204.155 142.248 203.933 142.029 203.655C141.81 203.378 141.661 203.054 141.595 202.709C141.528 202.365 141.547 202.01 141.648 201.674L157.502 133.677C157.709 132.884 158.172 132.178 158.821 131.663C159.469 131.147 160.271 130.85 161.106 130.815Z" fill="#9A9BCB"/>
<path fill-rule="evenodd" clip-rule="evenodd" d="M207.867 157.195C209.209 157.146 210.544 157.399 211.77 157.937C212.995 158.475 214.077 159.282 214.932 160.296C215.787 161.31 216.391 162.504 216.698 163.783C217.004 165.063 217.005 166.395 216.7 167.675C216.125 170.538 214.577 173.126 212.307 175.018C210.038 176.91 207.181 177.994 204.202 178.094C202.868 178.139 201.541 177.883 200.324 177.347C199.107 176.811 198.032 176.01 197.181 175.003C196.329 173.997 195.725 172.813 195.415 171.543C195.104 170.273 195.095 168.949 195.389 167.675C195.957 164.808 197.499 162.212 199.764 160.31C202.029 158.408 204.884 157.31 207.867 157.195Z" fill="#E6E8EF"/>
<path fill-rule="evenodd" clip-rule="evenodd" d="M82.1206 204.515H116.157C116.157 204.515 112.759 193.31 102.34 193.008C91.9217 192.705 80.8028 192.786 82.1206 204.515Z" fill="#6270B5"/>
<path fill-rule="evenodd" clip-rule="evenodd" d="M82.8619 204.515H101.393C97.0075 190.448 81.5029 192.726 82.8619 204.515Z" fill="#26304D"/>
<path fill-rule="evenodd" clip-rule="evenodd" d="M103.658 197.24C103.245 196.518 102.701 195.876 102.052 195.346C101.875 195.207 101.743 195.02 101.673 194.809C101.604 194.597 101.599 194.37 101.661 194.157C101.716 193.943 101.833 193.75 101.997 193.6C102.162 193.45 102.367 193.35 102.588 193.31C103.073 193.235 103.57 193.282 104.032 193.446C104.494 193.61 104.906 193.887 105.229 194.249C105.552 194.612 105.775 195.048 105.879 195.519C105.982 195.989 105.962 196.477 105.82 196.938C105.745 197.132 105.618 197.302 105.453 197.433C105.288 197.563 105.091 197.648 104.881 197.678C104.671 197.709 104.457 197.685 104.26 197.608C104.064 197.531 103.891 197.404 103.761 197.24H103.658Z" fill="#869ACE"/>
<path d="M276.762 185.249C276.762 185.249 269.062 174.366 264.532 180.311C260.002 186.256 267.929 195.366 271.471 196.736C272.414 197.15 273.482 197.202 274.462 196.881C275.442 196.559 276.264 195.889 276.762 195.003L276.021 194.015C274.802 194.451 273.477 194.519 272.218 194.21C270.959 193.901 269.823 193.23 268.959 192.282C266.179 188.957 264.243 182.568 267.558 181.037C270.873 179.505 276.762 187.808 276.762 187.808V185.249Z" fill="#7987A8"/>
<path d="M273.859 179.566V189.118C273.859 192.657 275.295 196.05 277.852 198.552C280.408 201.054 283.875 202.46 287.49 202.46H294.058C297.674 202.46 301.141 201.054 303.697 198.552C306.253 196.05 307.689 192.657 307.689 189.118V179.566C307.689 179.031 307.472 178.518 307.086 178.141C306.7 177.763 306.176 177.55 305.63 177.55H275.877C275.338 177.561 274.825 177.778 274.448 178.155C274.07 178.531 273.859 179.038 273.859 179.566Z" fill="#9A9CCE"/>
<path d="M317.717 202.54H20.3698C20.091 202.565 19.8203 202.645 19.5741 202.775C19.328 202.906 19.1116 203.084 18.9381 203.299C18.7647 203.514 18.6379 203.761 18.5654 204.026C18.4929 204.29 18.4763 204.567 18.5166 204.838V211.206C18.4763 211.477 18.4929 211.754 18.5654 212.018C18.6379 212.283 18.7647 212.53 18.9381 212.745C19.1116 212.96 19.328 213.138 19.5741 213.269C19.8203 213.399 20.091 213.479 20.3698 213.504H317.717C317.996 213.479 318.266 213.399 318.512 213.269C318.759 213.138 318.975 212.96 319.148 212.745C319.322 212.53 319.449 212.283 319.521 212.018C319.594 211.754 319.61 211.477 319.57 211.206V204.838C319.61 204.567 319.594 204.29 319.521 204.026C319.449 203.761 319.322 203.514 319.148 203.299C318.975 203.084 318.759 202.906 318.512 202.775C318.266 202.645 317.996 202.565 317.717 202.54Z" fill="#5D53A2"/>
<g opacity="0.7">
<path opacity="0.7" d="M322.617 16.4249H262.617C261.025 16.4249 259.734 17.6881 259.734 19.2464V59.7141C259.734 61.2723 261.025 62.5356 262.617 62.5356H322.617C324.209 62.5356 325.5 61.2723 325.5 59.7141V19.2464C325.5 17.6881 324.209 16.4249 322.617 16.4249Z" fill="#BEC0E1"/>
<g opacity="0.58">
<path opacity="0.58" d="M277.977 52.0962C270.729 52.0962 268.712 47.4206 268.609 47.2191C268.582 47.1557 268.57 47.0878 268.571 47.0195C268.573 46.9512 268.588 46.8839 268.617 46.8217C268.646 46.7595 268.688 46.7036 268.739 46.6576C268.791 46.6116 268.851 46.5764 268.917 46.554C268.981 46.5279 269.049 46.5145 269.118 46.5146C269.187 46.5147 269.255 46.5283 269.318 46.5546C269.381 46.5809 269.439 46.6194 269.487 46.6678C269.534 46.7161 269.572 46.7734 269.597 46.8362C269.597 47.0175 271.471 51.0684 277.977 51.0684C280.757 51.0684 281.333 49.053 281.951 45.627C282.569 42.2009 283.166 38.9562 287.49 38.9562C291.814 38.9562 292.761 42.0598 293.667 44.7805C294.573 47.5012 295.294 49.6778 298.465 49.6778C305.198 49.6778 309.234 34.0388 309.275 33.8776C309.309 33.7448 309.395 33.6304 309.514 33.5588C309.633 33.4872 309.777 33.4642 309.913 33.4947C310.046 33.5325 310.16 33.6174 310.232 33.733C310.305 33.8485 310.33 33.9863 310.304 34.1195C310.119 34.8047 306.021 50.7056 298.465 50.7056C294.511 50.7056 293.544 47.7229 292.658 45.103C291.773 42.4831 290.99 39.9841 287.511 39.9841C284.031 39.9841 283.578 42.6846 283.001 45.8084C282.425 48.9321 281.828 52.0962 277.977 52.0962Z" fill="#323086"/>
</g>
<g opacity="0.58">
<path opacity="0.58" d="M268.959 49.0933C269.948 49.0933 270.75 48.3083 270.75 47.34C270.75 46.3717 269.948 45.5867 268.959 45.5867C267.969 45.5867 267.167 46.3717 267.167 47.34C267.167 48.3083 267.969 49.0933 268.959 49.0933Z" fill="#323086"/>
</g>
<g opacity="0.58">
<path opacity="0.58" d="M289.137 39.4802C289.133 39.8261 289.025 40.1631 288.825 40.4488C288.626 40.7344 288.345 40.956 288.017 41.0856C287.69 41.2153 287.33 41.2471 286.984 41.1772C286.638 41.1073 286.321 40.9387 286.072 40.6928C285.824 40.4468 285.655 40.1343 285.588 39.7948C285.52 39.4552 285.557 39.1037 285.693 38.7845C285.829 38.4653 286.059 38.1927 286.353 38.0009C286.647 37.8091 286.992 37.7067 287.346 37.7067C287.583 37.7067 287.818 37.7527 288.036 37.8421C288.255 37.9315 288.453 38.0624 288.62 38.2274C288.787 38.3923 288.918 38.588 289.007 38.8031C289.096 39.0181 289.14 39.2483 289.137 39.4802Z" fill="#323086"/>
</g>
<g opacity="0.58">
<path opacity="0.58" d="M311.56 34.0993C311.564 34.4518 311.461 34.7974 311.264 35.0921C311.066 35.3869 310.783 35.6173 310.451 35.754C310.119 35.8907 309.753 35.9275 309.4 35.8598C309.047 35.792 308.722 35.6227 308.467 35.3734C308.213 35.1242 308.04 34.8063 307.97 34.4604C307.901 34.1146 307.939 33.7563 308.078 33.4314C308.218 33.1066 308.453 32.8298 308.755 32.6365C309.056 32.4431 309.409 32.342 309.769 32.346C310.004 32.346 310.237 32.3914 310.454 32.4795C310.672 32.5676 310.869 32.6967 311.036 32.8595C311.202 33.0224 311.334 33.2156 311.424 33.4284C311.514 33.6411 311.56 33.8691 311.56 34.0993Z" fill="#323086"/>
</g>
<g opacity="0.58">
<path opacity="0.58" d="M271.491 32.3459C274.289 32.3459 276.556 30.1263 276.556 27.3882C276.556 24.6502 274.289 22.4305 271.491 22.4305C268.694 22.4305 266.426 24.6502 266.426 27.3882C266.426 30.1263 268.694 32.3459 271.491 32.3459Z" fill="#323086"/>
</g>
<g opacity="0.58">
<path opacity="0.58" d="M300.03 25.9977H282.692C282.414 25.9977 282.147 25.8894 281.95 25.6967C281.753 25.5039 281.642 25.2425 281.642 24.9699C281.642 24.6973 281.753 24.4359 281.95 24.2431C282.147 24.0504 282.414 23.9421 282.692 23.9421H300.03C300.308 23.9421 300.575 24.0504 300.772 24.2431C300.969 24.4359 301.08 24.6973 301.08 24.9699C301.08 25.2425 300.969 25.5039 300.772 25.6967C300.575 25.8894 300.308 25.9977 300.03 25.9977Z" fill="#323086"/>
</g>
<g opacity="0.58">
<path opacity="0.58" d="M292.638 29.9276H282.692C282.414 29.9276 282.147 29.8193 281.95 29.6265C281.753 29.4338 281.642 29.1724 281.642 28.8998C281.642 28.6272 281.753 28.3657 281.95 28.173C282.147 27.9802 282.414 27.8719 282.692 27.8719H292.638C292.916 27.8719 293.183 27.9802 293.38 28.173C293.577 28.3657 293.688 28.6272 293.688 28.8998C293.688 29.1724 293.577 29.4338 293.38 29.6265C293.183 29.8193 292.916 29.9276 292.638 29.9276Z" fill="#323086"/>
</g>
</g>
<path d="M211.017 64.692V92.4229C211.017 93.0042 210.9 93.5798 210.672 94.1165C210.444 94.6533 210.11 95.1408 209.689 95.5509C209.268 95.961 208.769 96.2857 208.219 96.5063C207.67 96.7269 207.081 96.8391 206.487 96.8364H163.968L153.673 104.233C153.509 104.35 153.312 104.416 153.11 104.422C152.907 104.429 152.707 104.375 152.535 104.269C152.364 104.162 152.23 104.007 152.15 103.825C152.07 103.642 152.048 103.44 152.087 103.245L153.384 96.8364H145.519C144.323 96.8364 143.176 96.3714 142.33 95.5437C141.484 94.716 141.009 93.5934 141.009 92.4229V64.692C141.009 63.5214 141.484 62.3988 142.33 61.5711C143.176 60.7434 144.323 60.2784 145.519 60.2784H206.405C207.005 60.265 207.603 60.3692 208.162 60.585C208.721 60.8008 209.23 61.1238 209.66 61.535C210.09 61.9461 210.431 62.4372 210.664 62.9794C210.897 63.5216 211.017 64.1038 211.017 64.692Z" fill="#E6E8EF"/>
<path d="M161.826 84.9259H159.541V80.2503H155.052V84.9259H152.869V74.0229H155.155V78.4365H159.644V74.0229H161.929L161.826 84.9259Z" fill="#CD447B"/>
<path d="M171.998 75.8367H168.58V84.9259H166.294V75.8367H162.918V74.0229H171.998V75.8367Z" fill="#CD447B"/>
<path d="M176.301 74.0229L179.163 81.923L182.005 74.0229H185.032V84.9259H182.726V81.9432L182.952 76.8041L179.946 84.8654H178.36L175.375 76.8041L175.519 81.9432V84.9259H173.295V74.0229H176.301Z" fill="#CD447B"/>
<path d="M189.315 83.1121H194.195V84.9259H187.029V74.0229H189.315V83.1121Z" fill="#CD447B"/>
<path d="M195.615 79.5651L196.254 74.0229H202.431V75.8166H198.169L197.88 78.1745C198.398 77.8964 198.978 77.7508 199.569 77.7513C200.031 77.7274 200.492 77.8015 200.922 77.9685C201.352 78.1354 201.741 78.3913 202.06 78.7187C202.699 79.4747 203.023 80.4394 202.966 81.4192C202.97 82.0768 202.815 82.7259 202.513 83.3136C202.218 83.8645 201.758 84.3144 201.195 84.6034C200.562 84.9305 199.852 85.0903 199.136 85.0669C198.489 85.0696 197.849 84.9319 197.263 84.6639C196.711 84.4188 196.24 84.028 195.904 83.5353C195.558 83.0501 195.372 82.4739 195.368 81.8827H197.551C197.569 82.2878 197.746 82.6705 198.045 82.9508C198.345 83.2105 198.736 83.3476 199.136 83.3338C199.36 83.3446 199.582 83.3004 199.784 83.2054C199.985 83.1103 200.159 82.9674 200.289 82.7896C200.581 82.3469 200.718 81.8237 200.681 81.2983C200.718 80.7888 200.556 80.2846 200.228 79.8875C200.056 79.7126 199.847 79.5767 199.616 79.4897C199.384 79.4026 199.136 79.3664 198.889 79.3837C198.43 79.3748 197.98 79.5167 197.613 79.7868L197.407 79.9883L195.615 79.5651Z" fill="#CD447B"/>
<path d="M283.228 82.3865V107.8C283.228 108.869 282.794 109.894 282.022 110.65C281.249 111.406 280.202 111.83 279.11 111.83H248.368L239.02 118.602C238.873 118.714 238.695 118.778 238.509 118.787C238.324 118.796 238.14 118.749 237.982 118.652C237.825 118.555 237.702 118.414 237.63 118.246C237.557 118.078 237.54 117.893 237.579 117.715L238.773 111.83H231.463C230.371 111.83 229.324 111.406 228.551 110.65C227.779 109.894 227.345 108.869 227.345 107.8V82.3865C227.345 81.3176 227.779 80.2923 228.551 79.5364C229.324 78.7805 230.371 78.3559 231.463 78.3559H279.11C280.202 78.3559 281.249 78.7805 282.022 79.5364C282.794 80.2923 283.228 81.3176 283.228 82.3865Z" fill="#E6E8EF"/>
<path d="M241.573 97.1186V101.955H238.691V88.2512H244.147C245.098 88.2363 246.041 88.4291 246.906 88.8154C247.673 89.1613 248.318 89.7224 248.759 90.4277C249.195 91.139 249.417 91.9565 249.398 92.7856C249.421 93.3849 249.307 93.9817 249.065 94.5326C248.823 95.0835 248.458 95.5745 247.997 95.9699C246.873 96.7925 245.487 97.1994 244.085 97.1186H241.573ZM241.573 94.8413H244.147C244.776 94.8787 245.397 94.6926 245.897 94.3173C246.098 94.1195 246.255 93.8831 246.358 93.6229C246.461 93.3627 246.507 93.0845 246.494 92.8058C246.517 92.2031 246.295 91.616 245.877 91.1734C245.659 90.9611 245.398 90.7958 245.11 90.6882C244.823 90.5806 244.516 90.5331 244.209 90.5486H241.573V94.8413Z" fill="#65629F"/>
<path d="M262.761 101.955H259.94V96.0907H254.319V101.955H251.436V88.2511H254.319V93.8134H259.94V88.2511H262.823L262.761 101.955Z" fill="#65629F"/>
<path d="M268.176 97.1186V101.955H265.293V88.2512H270.75C271.701 88.2363 272.644 88.4291 273.509 88.8154C274.276 89.1613 274.921 89.7224 275.362 90.4277C275.783 91.1156 276.004 91.9031 276 92.705C276.024 93.3043 275.91 93.9011 275.668 94.452C275.426 95.0029 275.061 95.4939 274.6 95.8892C273.476 96.7119 272.09 97.1188 270.688 97.038L268.176 97.1186ZM268.176 94.8413H270.75C271.373 94.8831 271.99 94.6963 272.48 94.3173C272.691 94.1261 272.856 93.8913 272.963 93.6298C273.07 93.3683 273.116 93.0868 273.097 92.8058C273.12 92.2031 272.898 91.616 272.48 91.1734C272.261 90.9611 272 90.7958 271.713 90.6882C271.426 90.5806 271.119 90.5331 270.812 90.5486H268.176V94.8413Z" fill="#65629F"/>
</g>
<defs>
<clipPath id="clip0">
<rect width="325" height="213.504" fill="white" transform="translate(0.5)"/>
</clipPath>
</defs>
</svg>
